<svg xmlns="http://www.w3.org/2000/svg" width="20" height="20" viewBox="0 0 20 20">
    <path fill="#FFF" fill-rule="nonzero" d="M6.28 6.621l-4.62-4.62L3.45.21a.71.71 0 0 1 .999-.008l3.599 3.601a.712.712 0 0 1-.004 1.005l-.788.787-.734.733a2.02 2.02 0 0 0-.242.293zm3.801 7.526a40.52 40.52 0 0 1-2.186-2.044 41.074 41.074 0 0 1-2.044-2.19c-.533-.616-.638-1.508-.359-2.26L.75 2.912C-.354 4.046-.212 6.858.997 9.329c.519 1.069 1.192 2.033 1.888 2.95a26.45 26.45 0 0 0 2.26 2.58c.805.806 1.66 1.572 2.573 2.266.918.698 1.885 1.367 2.947 1.885 2.476 1.207 5.29 1.34 6.423.235l-4.743-4.741c-.751.279-1.645.175-2.264-.357zm9.715 1.4l-3.6-3.6a.717.717 0 0 0-1.004.004h-.003l-.79.79-.73.732c-.09.09-.188.17-.292.243l4.618 4.62c.598-.6 1.194-1.194 1.793-1.79a.704.704 0 0 0 .008-1z"/>
</svg>
